<?xml version="1.0" encoding="UTF-8" standalone="no"?>
<svg
   width="35.713367"
   height="35.713367"
   viewBox="0 0 35.713367 35.713367"
   fill="none"
   version="1.1"
   id="svg3"
   sodipodi:docname="projectDetailsIcon1_2.svg"
   inkscape:version="1.3.2 (091e20e, 2023-11-25, custom)"
   xmlns:inkscape="http://www.inkscape.org/namespaces/inkscape"
   xmlns:sodipodi="http://sodipodi.sourceforge.net/DTD/sodipodi-0.dtd"
   xmlns="http://www.w3.org/2000/svg"
   xmlns:svg="http://www.w3.org/2000/svg">
  <sodipodi:namedview
     id="namedview3"
     pagecolor="#ffffff"
     bordercolor="#000000"
     borderopacity="0.25"
     inkscape:showpageshadow="2"
     inkscape:pageopacity="0.0"
     inkscape:pagecheckerboard="0"
     inkscape:deskcolor="#d1d1d1"
     inkscape:zoom="10.881588"
     inkscape:cx="15.347025"
     inkscape:cy="23.020537"
     inkscape:window-width="1920"
     inkscape:window-height="1009"
     inkscape:window-x="1912"
     inkscape:window-y="-8"
     inkscape:window-maximized="1"
     inkscape:current-layer="svg3" />
  <g
     clip-path="url(#clip0_261_70)"
     id="g3"
     style="display:inline"
     transform="translate(-0.6432816,-9.143316)">
    <path
       d="M 256,0 C 114.51,0 0,114.497 0,256 0,397.491 114.497,512 256,512 397.49,512 512,397.503 512,256 512,114.509 397.503,0 256,0 Z m 0,478.609 C 133.254,478.609 33.391,378.747 33.391,256 33.391,133.253 133.254,33.391 256,33.391 c 122.746,0 222.609,99.863 222.609,222.609 0,122.746 -99.863,222.609 -222.609,222.609 z"
       id="path1-1"
       style="fill:#ffffff"
       inkscape:label="path1-1"
       transform="matrix(0.06975267,0,0,0.06975267,0.6432816,9.143316)" />
    <path
       d="M 256,66.783 C 151.29,66.783 66.783,151.738 66.783,256 c 0,48.619 18.872,97.248 55.421,133.797 6.52,6.52 17.091,6.52 23.611,0 l 23.611,-23.611 c 6.52,-6.519 6.52,-17.09 0,-23.611 -6.519,-6.52 -17.09,-6.52 -23.611,0 l -11.177,11.177 c -19.241,-23.851 -30.408,-52.1 -33.501,-81.056 h 15.734 c 9.22,0 16.696,-7.475 16.696,-16.696 0,-9.22 -7.475,-16.696 -16.696,-16.696 h -15.725 c 3.094,-28.955 14.261,-57.198 33.5,-81.05 l 11.17,11.169 c 6.52,6.52 17.091,6.52 23.611,0 6.519,-6.519 6.519,-17.091 0,-23.611 l -11.175,-11.175 c 23.276,-18.804 51.227,-30.356 81.054,-33.5 v 15.732 c 0,9.22 7.475,16.696 16.696,16.696 9.22,0 16.696,-7.475 16.696,-16.696 v -15.731 c 29.827,3.144 57.777,14.698 81.054,33.5 L 281.72,206.67 c -7.699,-4.03 -16.444,-6.323 -25.719,-6.323 -30.687,0 -55.652,24.966 -55.652,55.652 0,30.687 24.966,55.652 55.652,55.652 30.687,0 55.652,-24.966 55.652,-55.652 0,-9.275 -2.293,-18.02 -6.323,-25.718 l 72.026,-72.026 c 19.239,23.85 30.406,52.094 33.5,81.05 H 395.13 c -9.22,0 -16.696,7.475 -16.696,16.696 0,9.22 7.475,16.696 16.696,16.696 h 15.734 c -3.093,28.956 -14.26,57.206 -33.501,81.056 l -11.177,-11.177 c -6.519,-6.519 -17.091,-6.519 -23.611,0 -6.52,6.52 -6.52,17.091 0,23.611 l 23.611,23.611 c 6.52,6.52 17.091,6.52 23.611,0 C 426.279,353.315 445.218,304.714 445.218,256 445.217,151.681 360.676,66.783 256,66.783 Z m 0,211.478 c -12.275,0 -22.261,-9.986 -22.261,-22.261 0,-12.275 9.986,-22.261 22.261,-22.261 12.275,0 22.261,9.986 22.261,22.261 0,12.275 -9.986,22.261 -22.261,22.261 z"
       id="path2-0"
       style="fill:#ffffff"
       transform="matrix(0.06975267,0,0,0.06975267,0.6432816,9.143316)" />
    <path
       d="m 272.696,345.043 h -33.391 c -27.618,0 -50.087,22.469 -50.087,50.087 0,27.618 22.469,50.087 50.087,50.087 h 33.391 c 27.618,0 50.087,-22.469 50.087,-50.087 0,-27.618 -22.469,-50.087 -50.087,-50.087 z m 0,66.783 h -33.391 c -9.206,0 -16.696,-7.49 -16.696,-16.696 0,-9.206 7.49,-16.696 16.696,-16.696 h 33.391 c 9.206,0 16.696,7.49 16.696,16.696 0,9.206 -7.49,16.696 -16.696,16.696 z"
       id="path4"
       style="fill:#ffffff"
       transform="matrix(0.06975267,0,0,0.06975267,0.6432816,9.143316)" />
  </g>
  <defs
     id="defs3">
    <clipPath
       id="clip0_261_70">
      <rect
         width="36.458302"
         height="53.229198"
         fill="#ffffff"
         transform="translate(0.269531,0.520874)"
         id="rect3"
         x="0"
         y="0" />
    </clipPath>
  </defs>
</svg>
